<svg width="107" height="86" viewBox="0 0 107 86" fill="none" xmlns="http://www.w3.org/2000/svg">
<path d="M31.8143 27.8055L9.21797 0H0V67.7006H9.73576V15.0236L30.8871 41.1928H32.6874L53.0078 15.7608V1.57339L31.8143 27.8055Z" fill="#2A2A2A"/>
<path d="M74.2284 39.8951L96.8278 67.7006H106.043V0H96.31V52.677L75.1557 26.5078H73.3554L53.038 51.9398V66.1272L74.2284 39.8951Z" fill="#2A2A2A"/>
<path d="M11.3252 74.5606H12.9629L15.013 80.6983L17.0782 74.5606H18.7158L20.2 83.3596H18.5744L17.6261 77.8033L15.7476 83.3596H14.2664L12.403 77.8033L11.4396 83.3596H9.79291L11.3252 74.5606Z" fill="#2A2A2A"/>
<path d="M26.6845 76.8533H28.3613L30.0592 80.9351L31.9347 76.8533H33.6146L29.5203 85.7391H27.8255L29.1711 82.8741L26.6845 76.8533Z" fill="#2A2A2A"/>
<path d="M44.8555 74.5606H46.5083L47.7877 80.1769L49.3712 74.5606H50.771L52.3816 80.1769L53.646 74.5606H55.2987L53.2848 83.3596H51.6712L50.0425 77.6654L48.444 83.3596H46.8454L44.8555 74.5606Z" fill="#2A2A2A"/>
<path d="M69.0203 80.5785H63.7521C63.8083 81.0077 64.0229 81.4008 64.3542 81.6813C64.7132 81.9656 65.1632 82.1114 65.6216 82.0919C65.9147 82.096 66.2058 82.0413 66.4773 81.9312C66.7488 81.821 66.9953 81.6575 67.202 81.4506L68.5838 82.0979C68.2691 82.5566 67.8423 82.9279 67.3435 83.1768C66.808 83.4225 66.223 83.5424 65.6336 83.5274C65.1716 83.5457 64.7107 83.4695 64.2793 83.3035C63.848 83.1375 63.4555 82.8853 63.1259 82.5624C62.808 82.2453 62.5584 81.8671 62.3922 81.4507C62.2261 81.0344 62.1469 80.5887 62.1596 80.1409C62.1458 79.6856 62.224 79.2321 62.3895 78.8074C62.5549 78.3827 62.8043 77.9954 63.1229 77.6684C63.4343 77.3478 63.8091 77.095 64.2236 76.9258C64.6381 76.7566 65.0834 76.6748 65.5312 76.6854C65.9953 76.6673 66.4581 76.7453 66.8903 76.9145C67.3224 77.0837 67.7146 77.3404 68.0419 77.6684C68.3694 78.0152 68.6237 78.4238 68.7897 78.8701C68.9556 79.3164 69.03 79.7913 69.0083 80.2668L69.0203 80.5785ZM67.3796 79.2928C67.2744 78.9334 67.0479 78.6212 66.7384 78.4087C66.4157 78.179 66.0272 78.0592 65.6306 78.067C65.1977 78.0594 64.7744 78.1942 64.4264 78.4506C64.1591 78.6776 63.9522 78.9669 63.8243 79.2928H67.3796Z" fill="#2A2A2A"/>
<path d="M82.9496 80.5784H77.6693C77.7258 81.0076 77.9404 81.4006 78.2714 81.6813C78.6295 81.9651 79.0784 82.1109 79.5358 82.0919C79.829 82.0965 80.1202 82.0421 80.3918 81.9319C80.6634 81.8216 80.9098 81.6579 81.1163 81.4505L82.4981 82.0979C82.1852 82.557 81.7592 82.9285 81.2608 83.1768C80.7242 83.4224 80.1382 83.5423 79.5478 83.5274C79.0862 83.5456 78.6258 83.4694 78.195 83.3034C77.7642 83.1374 77.3721 82.8852 77.0431 82.5624C76.7252 82.2453 76.4756 81.8671 76.3094 81.4507C76.1433 81.0344 76.0641 80.5887 76.0768 80.1409C76.0623 79.6855 76.1402 79.2319 76.3057 78.8071C76.4712 78.3823 76.721 77.995 77.0401 77.6684C77.3512 77.3474 77.7259 77.0942 78.1405 76.925C78.5551 76.7558 79.0005 76.6742 79.4485 76.6854C79.9125 76.6673 80.3753 76.7453 80.8075 76.9145C81.2397 77.0837 81.6319 77.3404 81.9592 77.6684C82.2876 78.0146 82.5427 78.4231 82.7093 78.8695C82.8758 79.3159 82.9504 79.7911 82.9285 80.2667L82.9496 80.5784ZM81.3089 79.2927C81.2037 78.9334 80.9772 78.6212 80.6677 78.4087C80.3437 78.1794 79.9543 78.0596 79.5568 78.067C79.124 78.0598 78.7009 78.1946 78.3527 78.4506C78.0862 78.6785 77.8796 78.9675 77.7506 79.2927H81.3089Z" fill="#2A2A2A"/>
<path d="M90.3403 74.3388H91.981V79.5355L94.3893 76.8533H96.4485L93.6337 79.9701L96.7857 83.3596H94.7506L91.975 80.3627V83.3596H90.3343L90.3403 74.3388Z" fill="#2A2A2A"/>
</svg>
